<?xml version="1.0" encoding="iso-8859-1"?>
<!-- Generator: Adobe Illustrator 19.0.0, SVG Export Plug-In . SVG Version: 6.00 Build 0)  -->
<svg version="1.1" id="Layer_1" xmlns="http://www.w3.org/2000/svg" xmlns:xlink="http://www.w3.org/1999/xlink" x="0px" y="0px"
	 viewBox="0 0 512 512" style="enable-background:new 0 0 512 512;" xml:space="preserve">
<g>
	<g>
		<path d="M149.84,154.816H87.914c-9.452,0-17.14,7.689-17.14,17.14v17.693c0,4.58,3.713,8.294,8.294,8.294
			c4.58,0,8.294-3.713,8.294-8.294v-17.693c0-0.305,0.248-0.553,0.553-0.553h61.927c4.58,0,8.294-3.713,8.294-8.294
			C158.134,158.53,154.421,154.816,149.84,154.816z"/>
	</g>
</g>
<g>
	<g>
		<path d="M149.84,278.67H87.914c-0.305,0-0.553-0.248-0.553-0.553V233.33h27.093c4.58,0,8.294-3.713,8.294-8.294
			c0-4.58-3.713-8.294-8.294-8.294H79.067c-4.58,0-8.294,3.713-8.294,8.294v53.08c0,9.452,7.689,17.14,17.14,17.14h61.927
			c4.58,0,8.294-3.713,8.294-8.294C158.134,282.383,154.421,278.67,149.84,278.67z"/>
	</g>
</g>
<g>
	<g>
		<path d="M239.652,225.037l40.79-57.106c2.663-3.728,1.799-8.907-1.929-11.569c-3.727-2.662-8.906-1.798-11.569,1.929
			l-88.467,123.853c-2.663,3.727-1.799,8.906,1.929,11.569c1.461,1.044,3.145,1.545,4.814,1.545c2.588,0,5.138-1.208,6.755-3.473
			l37.484-52.478l37.484,52.478c1.619,2.266,4.168,3.473,6.756,3.473c1.669,0,3.353-0.502,4.814-1.545
			c3.728-2.663,4.59-7.843,1.929-11.569L239.652,225.037z"/>
	</g>
</g>
<g>
	<g>
		<path d="M216.51,192.638l-24.535-34.348c-2.663-3.728-7.844-4.591-11.569-1.929c-3.728,2.663-4.59,7.843-1.929,11.569
			l24.535,34.348c1.619,2.266,4.168,3.473,6.756,3.473c1.669,0,3.353-0.502,4.814-1.545
			C218.309,201.544,219.171,196.365,216.51,192.638z"/>
	</g>
</g>
<g>
	<g>
		<path d="M317.927,199.05c-4.58,0-8.294,3.713-8.294,8.294v79.62c0,4.58,3.713,8.294,8.294,8.294c4.58,0,8.294-3.713,8.294-8.294
			v-79.62C326.22,202.763,322.507,199.05,317.927,199.05z"/>
	</g>
</g>
<g>
	<g>
		<path d="M317.927,154.816c-4.58,0-8.294,3.713-8.294,8.294v8.846c0,4.58,3.713,8.294,8.294,8.294c4.58,0,8.294-3.713,8.294-8.294
			v-8.846C326.22,158.53,322.507,154.816,317.927,154.816z"/>
	</g>
</g>
<g>
	<g>
		<path d="M441.78,154.816h-88.466c-4.58,0-8.294,3.713-8.294,8.294c0,4.58,3.713,8.294,8.294,8.294h88.466
			c4.58,0,8.294-3.713,8.294-8.294C450.073,158.53,446.36,154.816,441.78,154.816z"/>
	</g>
</g>
<g>
	<g>
		<path d="M397.546,190.203c-4.58,0-8.294,3.713-8.294,8.294v88.466c0,4.58,3.713,8.294,8.294,8.294c4.58,0,8.294-3.713,8.294-8.294
			v-88.466C405.84,193.916,402.127,190.203,397.546,190.203z"/>
	</g>
</g>
<g>
	<g>
		<path d="M486.013,92.89H25.987C11.658,92.89,0,104.548,0,118.877v194.626c0,4.58,3.713,8.294,8.294,8.294
			c4.58,0,8.294-3.713,8.294-8.294V118.877c0-5.183,4.217-9.4,9.4-9.4h460.026c5.183,0,9.4,4.217,9.4,9.4v274.246
			c0,5.183-4.217,9.4-9.4,9.4H25.987c-5.183,0-9.4-4.216-9.4-9.4v-35.387c0-0.305,0.248-0.553,0.553-0.553h398.354l-3.963,1.982
			c-4.097,2.048-5.758,7.03-3.709,11.127c1.453,2.906,4.381,4.587,7.425,4.586c1.246,0,2.511-0.282,3.702-0.877l35.387-17.693
			c2.81-1.404,4.585-4.276,4.585-7.418s-1.775-6.013-4.585-7.418l-35.387-17.693c-4.094-2.048-9.078-0.388-11.127,3.709
			c-2.049,4.097-0.388,9.079,3.709,11.127l3.963,1.982H17.14c-9.452,0-17.14,7.689-17.14,17.14v35.387
			c0,14.329,11.658,25.987,25.987,25.987h460.026c14.329,0,25.987-11.658,25.987-25.987V118.877
			C512,104.548,500.342,92.89,486.013,92.89z"/>
	</g>
</g>
<g>
</g>
<g>
</g>
<g>
</g>
<g>
</g>
<g>
</g>
<g>
</g>
<g>
</g>
<g>
</g>
<g>
</g>
<g>
</g>
<g>
</g>
<g>
</g>
<g>
</g>
<g>
</g>
<g>
</g>
</svg>
